# xmcd
#
# Track frame offsets: 
#        150
#        13492
#        25774
#        39192
#        51546
#        63998
#        78789
#        91018
#        102287
#        113803
#        124935
#        141159
#        152761
#        171447
#        184317
#        195370
#        208739
#        225570
#        253255
#
# Disc length: 3600 seconds
#
# Revision: 1
# Processed by: cddbd v1.5.2PL0 Copyright (c) Steve Scherf et al.
# Submitted via: ExactAudioCopy v0.99pb4
#
DISCID=040e0e13
DTITLE=Waylon Jennings - Dreaming My Dreams
DYEAR=2002
DGENRE=Country
TTITLE0=Are You Sure Hank Done It This Way
TTITLE1=Waymore's Blues
TTITLE2=I Recall A Gypsy Woman
TTITLE3=High Time
TTITLE4=I've Been A Long Time Leaving
TTITLE5=Let's All Help The Cowboys
TTITLE6=The Door Is Always Open
TTITLE7=Let's Turn Back The Years
TTITLE8=She's Looking Good
TTITLE9=Dreaming My Dreams With You
TTITLE10=Bob Wills Is Still The King
TTITLE11=Got A Lot Going For Me
TTITLE12=Last Letter
TTITLE13=One I Sing My Love Song To
TTITLE14=That'll Be The Day
TTITLE15=It Doesn't Matter Anymore
TTITLE16=Lady In The Harbor
TTITLE17=It's So Easy Maybe Baby Peggy Sue
TTITLE18=If You're Goin' Girl
EXTD=YEAR: 2002 ID3G: 2
EXTT0=
EXTT1=
EXTT2=
EXTT3=
EXTT4=
EXTT5=
EXTT6=
EXTT7=
EXTT8=
EXTT9=
EXTT10=
EXTT11=
EXTT12=
EXTT13=
EXTT14=
EXTT15=
EXTT16=
EXTT17=
EXTT18=
PLAYORDER=
